<?xml version="1.0" standalone="no"?> <!DOCTYPE svg PUBLIC "-//W3C//DTD SVG 1.0//EN" "http://www.w3.org/TR/2001/REC-SVG-20010904/DTD/svg10.dtd" > <svg xmlns="http://www.w3.org/2000/svg" width="100%" height="100%">
<defs >
<font id="galacticspaceport" horiz-adv-x="541" ><font-face
    font-family="Galactic Spaceport"
    units-per-em="1000"
    panose-1="0 0 0 0 0 0 0 0 0 0"
    ascent="750"
    descent="-250"
    alphabetic="0" />
<missing-glyph horiz-adv-x="198" />
<glyph unicode=" " glyph-name="space" horiz-adv-x="198" />
<glyph unicode="!" glyph-name="exclam" horiz-adv-x="240" d="M74 309H166V218H74V309ZM74 92H166V0H74V92ZM74 418H166V326H74V418ZM74 527H166V435H74V527ZM74 636H166V544H74V636ZM74 745H166V653H74V745Z" />
<glyph unicode="&quot;" glyph-name="quotedbl" horiz-adv-x="329" d="M62 653V745H154V653H62ZM62 636L154 544V636H62ZM172 636L264 544V636H172ZM172 653V745H264V653H172Z" />
<glyph unicode="#" glyph-name="numbersign" horiz-adv-x="608" d="M258 217V309H349V217H258ZM366 326V418H458V326H366ZM258 435V527H349V435H258ZM148 326V418H240V326H148ZM366 435V527H458V435H366ZM366 218V309H458V218H366ZM366 109V201H458V109H366ZM148
218V309H240V218H148ZM148 109V201H240V109H148ZM148 435V527H240V435H148ZM366 544V636H458V544H366ZM148 544V636H240V544H148ZM475 218V310H566L475 218ZM366 0V92H458L366 0ZM148 0V92H240L148 0ZM475 435V527H566L475 435ZM131 527V435H39L131 527ZM131 309V217H39L131
309ZM458 745V653H366L458 745ZM240 745V653H148L240 745Z" />
<glyph unicode="$" glyph-name="dollar" horiz-adv-x="674" d="M295 326V418H387V326H295ZM404 326V418H496V326H404ZM513 218V309H604V218H513ZM186 326V418H278V326H186ZM295 109V201H387V109H295ZM404 109V201H496V109H404ZM186 109V201H278V109H186ZM295 544V636H387V544H295ZM295
653V745H387V653H295ZM295 0V92H387V0H295ZM295 218V309H387V218H295ZM295 435V527H387V435H295ZM404 544V636H496V544H404ZM186 544V636H278V544H186ZM77 435V527H169V435H77ZM604 544L513 636V544H604ZM169 218L77 309V218H169ZM604 326L513 418V326H604ZM169
636L77 544H169V636ZM77 201L169 109V201H77ZM77 418L169 326V418H77ZM513 109L604 201H513V109ZM513 527L604 435V527H513Z" />
<glyph unicode="%" glyph-name="percent" horiz-adv-x="658" d="M388 92H480V0L388 92ZM480 201V109H388L480 201ZM588 109H497V201L588 109ZM497 0V92H588L497 0ZM61 636H153V544L61 636ZM153 745V653H61L153 745ZM262 653H170V745L262 653ZM170 544V636H262L170
544ZM262 109H170V201H262V109ZM480 544H388V636H480V544ZM170 218L262 309V218H170ZM371 309L279 218V309H371ZM61 0L153 92V0H61ZM262 92L170 0V92H262ZM480 527L388 435V527H480ZM371 326H279V418H371V326ZM279 435L371 527V435H279ZM588 745L497 653V745H588ZM388
653L480 745V653H388Z" />
<glyph unicode="&amp;" glyph-name="ampersand" horiz-adv-x="672" d="M293 653V745H385V653H293ZM184 544V636H276V544H184ZM184 435V527H276V435H184ZM184 326V418H276V326H184ZM293 435V527H385V435H293ZM402 544V636H494V544H402ZM494 653L402 745V653H494ZM276
745L184 653H276V745ZM494 201L402 109H494V201ZM167 418L75 326H167V418ZM75 218V309H167V218H75ZM511 0V92H602V0H511ZM511 218V309H602V218H511ZM75 109V201H167V109H75ZM184 0V92H276V0H184ZM294 0V92H385V0H294ZM75 92L167 0V92H75ZM494 218L402 309V218H494ZM385
326L294 418V326H385ZM293 309L385 218V309H293ZM402 0L494 92H402V0ZM511 109L602 201H511V109ZM402 435L494 527H402V435Z" />
<glyph unicode="&apos;" glyph-name="quotesingle" horiz-adv-x="224" d="M65 653V745H156V653H65ZM65 636L156 544V636H65Z" />
<glyph unicode="(" glyph-name="parenleft" horiz-adv-x="339" d="M181 653V745H273V653H181ZM72 544V636H164V544H72ZM72 435V527H164V435H72ZM181 0V92H273V0H181ZM73 218V309H164V218H73ZM72 326V418H164V326H72ZM72 109V201H164V109H72ZM164 745L72 653H164V745ZM72
92L164 0V92H72Z" />
<glyph unicode=")" glyph-name="parenright" horiz-adv-x="350" d="M75 653V745H167V653H75ZM184 544V636H276V544H184ZM184 435V527H276V435H184ZM75 0V92H167V0H75ZM185 218V309H276V218H185ZM184 326V418H276V326H184ZM184 109V201H276V109H184ZM276 653L184
745V653H276ZM184 0L276 92H184V0Z" />
<glyph unicode="*" glyph-name="asterisk" horiz-adv-x="432" d="M171 635V543H262V635H171ZM279 652V744H371V652H279ZM279 435V526H371V435H279ZM61 435V526H153V435H61ZM61 652V744H153V652H61Z" />
<glyph unicode="+" glyph-name="plus" horiz-adv-x="659" d="M281 543V635H372V543H281ZM281 108V200H372V108H281ZM62 326V417H154V326H62ZM281 417V326H372V417H281ZM281 217V309H372V217H281ZM389 326V417H481V326H389ZM498 326V417H589V326H498ZM281 434V526H372V434H281ZM171
326V417H263V326H171Z" />
<glyph unicode="," glyph-name="comma" horiz-adv-x="181" d="M46 0V92H137V0H46ZM46 -17L137 -109V-17H46Z" />
<glyph unicode="-" glyph-name="hyphen" horiz-adv-x="419" d="M164 309H255V218H164V309ZM54 309H146V218H54V309ZM272 309H364V218H272V309Z" />
<glyph unicode="." glyph-name="period" horiz-adv-x="192" d="M48 0V92H140V0H48Z" />
<glyph unicode="/" glyph-name="slash" horiz-adv-x="638" d="M257 109V201H165V109H257ZM475 544V636H383V544H475ZM165 218L257 309V218H165ZM366 309L274 218V309H366ZM56 0L148 92V0H56ZM257 92L165 0V92H257ZM475 527L383 435V527H475ZM366 326V418H274V326H366ZM274
435L366 527V435H274ZM583 745L492 653V745H583ZM383 653L475 745V653H383Z" />
<glyph unicode="0" glyph-name="zero" horiz-adv-x="667" d="M162 544V636H70V544H162ZM162 435V527H70V435H162ZM271 0V92H179V0H271ZM380 0V92H288V0H380ZM489 0V92H397V0H489ZM597 544V636H506V544H597ZM597 109V201H506V109H597ZM162 109V201H70V109H162ZM70
653L162 745V653H70ZM506 745L597 653H506V745ZM397 544L489 636V544H397ZM288 435L380 527V435H288ZM179 218L271 309V218H179ZM597 92L506 0V92H597ZM162 0L70 92H162V0ZM271 201L179 109V201H271ZM380 309L288 218V309H380ZM489 527L397 435V527H489ZM271 653V745H179V653H271ZM380
653V745H288V653H380ZM489 653V745H397V653H489ZM597 435V527H506V435H597ZM597 326V418H506V326H597ZM380 326V418H289V326H380ZM597 218V309H506V218H597ZM162 218V309H70V218H162ZM162 326V418H70V326H162Z" />
<glyph unicode="1" glyph-name="one" horiz-adv-x="686" d="M396 201V109H304V201H396ZM396 309V218H304V309H396ZM287 745V653H195V745H287ZM396 745V653H304V745H396ZM178 745L86 653H178V745ZM522 0L613 92H522V0ZM86 544L178 636H86V544ZM613 201L522 109H613V201ZM287
92V0H195V92H287ZM178 92V0H86V92H178ZM396 92V0H304V92H396ZM505 92V0H413V92H505ZM396 636V544H305V636H396ZM396 527V435H305V527H396ZM396 418V326H305V418H396Z" />
<glyph unicode="2" glyph-name="two" horiz-adv-x="666" d="M161 201V109H69V201H161ZM161 309V218H69V309H161ZM270 745V653H178V745H270ZM379 745V653H287V745H379ZM488 745V653H396V745H488ZM596 636V544H505V636H596ZM596 653L505 745V653H596ZM596 201L505
109H596V201ZM161 418L69 326H161V418ZM161 745L69 653H161V745ZM505 326L596 418H505V326ZM505 0L596 92H505V0ZM69 544L161 636H69V544ZM270 92V0H178V92H270ZM161 92V0H69V92H161ZM379 92V0H287V92H379ZM488 92V0H396V92H488ZM596 527V435H505V527H596ZM270
418V326H178V418H270ZM379 418V326H288V418H379ZM488 418V326H396V418H488Z" />
<glyph unicode="3" glyph-name="three" horiz-adv-x="662" d="M266 0V92H174V0H266ZM375 0V92H283V0H375ZM484 0V92H392V0H484ZM592 544V636H501V544H592ZM592 109V201H501V109H592ZM592 326V418H501V326H592ZM65 653L157 745V653H65ZM501 745L592 653H501V745ZM65
201L157 109H65V201ZM592 92L501 0V92H592ZM157 636L65 544V636H157ZM157 0L65 92H157V0ZM266 653V745H174V653H266ZM375 653V745H283V653H375ZM484 653V745H392V653H484ZM592 435V527H501V435H592ZM592 218V309H501V218H592ZM266 326V418H174V326H266ZM375 326V418H284V326H375ZM484
326V418H392V326H484Z" />
<glyph unicode="4" glyph-name="four" horiz-adv-x="669" d="M164 544V636H72V544H164ZM164 435V527H72V435H164ZM599 544V636H508V544H599ZM599 435V527H508V435H599ZM599 109V201H508V109H599ZM599 92L508 0V92H599ZM72 653L164 745V653H72ZM164 326L72 418H164V326ZM508
745L599 653H508V745ZM599 326V418H508V326H599ZM599 218V309H508V218H599ZM273 326V418H181V326H273ZM382 326V418H291V326H382ZM491 326V418H399V326H491Z" />
<glyph unicode="5" glyph-name="five" horiz-adv-x="672" d="M167 544V636H75V544H167ZM167 435V527H75V435H167ZM276 0V92H184V0H276ZM385 0V92H293V0H385ZM494 0V92H402V0H494ZM602 109V201H511V109H602ZM602 92L511 0V92H602ZM167 326L75 418H167V326ZM167
0L75 92H167V0ZM511 418L602 326H511V418ZM511 745L602 653H511V745ZM75 201L167 109H75V201ZM276 653V745H184V653H276ZM167 653V745H75V653H167ZM385 653V745H293V653H385ZM494 653V745H402V653H494ZM602 218V309H511V218H602ZM276 326V418H184V326H276ZM385
326V418H294V326H385ZM494 326V418H402V326H494Z" />
<glyph unicode="6" glyph-name="six" horiz-adv-x="671" d="M510 201H601V109H510V201ZM510 309H601V218H510V309ZM401 745H493V653H401V745ZM292 745H384V653H292V745ZM183 745H275V653H183V745ZM74 201H166V109H74V201ZM74 636H166V544H74V636ZM601 92L510 0V92H601ZM166
0L74 92H166V0ZM601 544L510 636H601V544ZM74 653L166 745V653H74ZM510 418L601 326H510V418ZM510 745L601 653H510V745ZM401 92H493V0H401V92ZM292 92H384V0H292V92ZM183 92H275V0H183V92ZM74 309H166V218H74V309ZM74 418H166V326H74V418ZM74 527H166V435H74V527ZM401
418H493V326H401V418ZM292 418H383V326H292V418ZM183 418H275V326H183V418Z" />
<glyph unicode="7" glyph-name="seven" horiz-adv-x="658" d="M592 544H501V636H592V544ZM592 653H501V745H592V653ZM65 653L157 745V653H65ZM284 326L375 418V326H284ZM392 435L484 527V435H392ZM592 527L500 435V527H592ZM157 636L65 544V636H157ZM484 418L392
326V418H484ZM266 653H174V745H266V653ZM375 653H283V745H375V653ZM484 653H392V745H484V653ZM375 109H284V201H375V109ZM375 0H284V92H375V0ZM375 218H284V309H375V218Z" />
<glyph unicode="8" glyph-name="eight" horiz-adv-x="668" d="M163 544V636H71V544H163ZM163 435V527H71V435H163ZM272 0V92H180V0H272ZM381 0V92H289V0H381ZM490 0V92H398V0H490ZM598 544V636H507V544H598ZM598 109V201H507V109H598ZM163 109V201H71V109H163ZM163
218V309H71V218H163ZM163 326V418H71V326H163ZM598 326V418H507V326H598ZM71 653L163 745V653H71ZM507 745L598 653H507V745ZM598 92L507 0V92H598ZM163 0L71 92H163V0ZM272 653V745H180V653H272ZM381 653V745H289V653H381ZM490 653V745H398V653H490ZM598 435V527H507V435H598ZM598
218V309H507V218H598ZM272 326V418H180V326H272ZM381 326V418H290V326H381ZM490 326V418H398V326H490Z" />
<glyph unicode="9" glyph-name="nine" horiz-adv-x="668" d="M163 544V636H71V544H163ZM163 435V527H71V435H163ZM272 0V92H180V0H272ZM381 0V92H289V0H381ZM490 0V92H398V0H490ZM598 544V636H507V544H598ZM598 109V201H507V109H598ZM71 653L163 745V653H71ZM507
745L598 653H507V745ZM71 201L163 109H71V201ZM598 92L507 0V92H598ZM163 326L71 418H163V326ZM163 0L71 92H163V0ZM272 653V745H180V653H272ZM381 653V745H289V653H381ZM490 653V745H398V653H490ZM598 435V527H507V435H598ZM598 326V418H507V326H598ZM598 218V309H507V218H598ZM272
326V418H180V326H272ZM381 326V418H290V326H381ZM490 326V418H398V326H490Z" />
<glyph unicode=":" glyph-name="colon" horiz-adv-x="198" d="M52 0V92H143V0H52ZM52 435V527H143V435H52Z" />
<glyph unicode=";" glyph-name="semicolon" horiz-adv-x="195" d="M52 0V92H143V0H52ZM52 435V527H143V435H52ZM51 -17L143 -109V-17H51Z" />
<glyph unicode="&lt;" glyph-name="less" horiz-adv-x="525" d="M69 326V418H161V326H69ZM487 745L395 653V745H487ZM395 92L487 0H395V92ZM286 201L378 109H286V201ZM178 309L269 218H178V309ZM269 527L178 435V527H269ZM378 636L286 544V636H378ZM378 0L286
92H378V0ZM269 109L177 201H269V109ZM161 218L69 309H161V218ZM286 653L378 745V653H286ZM178 544L269 636V544H178ZM69 435L161 527V435H69Z" />
<glyph unicode="=" glyph-name="equal" horiz-adv-x="664" d="M394 434V526H486V434H394ZM286 434V526H377V434H286ZM502 217V309H594V217H502ZM502 434V526H594V434H502ZM68 434V526H160V434H68ZM286 217V309H377V217H286ZM176 434V526H268V434H176ZM394 217V309H486V217H394ZM176
217V309H268V217H176ZM68 217V309H160V217H68Z" />
<glyph unicode="&gt;" glyph-name="greater" horiz-adv-x="512" d="M453 326H361V418H453V326ZM35 745H127V653L35 745ZM127 92V0H35L127 92ZM235 201V109H144L235 201ZM344 309V218H252L344 309ZM252 527H344V435L252 527ZM144 636H235V544L144 636ZM144 0V92H235L144
0ZM253 109V201H345L253 109ZM361 218V309H453L361 218ZM235 653H144V745L235 653ZM344 544H252V636L344 544ZM453 435H361V527L453 435Z" />
<glyph unicode="?" glyph-name="question" horiz-adv-x="656" d="M586 544V636H495V544H586ZM59 653L151 745V653H59ZM278 326L369 418V326H278ZM386 435L478 527V435H386ZM586 527L494 435V527H586ZM494 745L586 653H494V745ZM151 435L59 527H151V435ZM478 418L386
326V418H478ZM260 653V745H168V653H260ZM151 544V636H59V544H151ZM369 653V745H277V653H369ZM478 653V745H386V653H478ZM369 0V92H278V0H369ZM369 218V309H278V218H369Z" />
<glyph unicode="@" glyph-name="at" horiz-adv-x="665" d="M395 653V745H487V653H395ZM286 653V745H378V653H286ZM286 435V527H378V435H286ZM68 435V527H160V435H68ZM68 544V636H160V544H68ZM177 653V745H269V653H177ZM395 0V92H487V0H395ZM287 109V201H378V109H287ZM395
109V201H487V109H395ZM177 218V309H269V218H177ZM286 0V92H378V0H286ZM177 0V92H269V0H177ZM68 326V418H160V326H68ZM177 326V418H269V326H177ZM395 326V418H487V326H395ZM68 218V309H160V218H68ZM68 109V201H160V109H68ZM504 326V418H595V326H504ZM504 435V527H595V435H504ZM504
544V636H595V544H504ZM504 218V309H595V218H504ZM595 653L504 745V653H595ZM487 435L395 527V435H487ZM160 745L68 653H160V745ZM269 527L177 435H269V527ZM68 92L160 0V92H68ZM177 201L269 109V201H177ZM504 0L595 92H504V0ZM504 109L595 201H504V109ZM395 218L487
309H395V218Z" />
<glyph unicode="A" glyph-name="A" horiz-adv-x="646" d="M496 435V527H587V435H496ZM496 326V418H587V326H496ZM496 218V309H587V218H496ZM496 109V201H587V109H496ZM387 435V527H479V435H387ZM387 653V745H479V653H387ZM278 435V527H370V435H278ZM278 653V745H370V653H278ZM169
435V527H261V435H169ZM60 435V527H152V435H60ZM60 544V636H152V544H60ZM169 653V745H261V653H169ZM60 326V418H152V326H60ZM496 544V636H587V544H496ZM60 218V309H152V218H60ZM60 109V201H152V109H60ZM587 653L496 745V653H587ZM152 745L60 653H152V745ZM60 92L152
0V92H60ZM496 0L587 92H496V0Z" />
<glyph unicode="B" glyph-name="B" horiz-adv-x="659" d="M504 326V418H595V326H504ZM504 218V309H595V218H504ZM504 109V201H595V109H504ZM395 435V527H487V435H395ZM395 653V745H487V653H395ZM286 435V527H378V435H286ZM286 653V745H378V653H286ZM177 435V527H269V435H177ZM395
0V92H487V0H395ZM286 0V92H378V0H286ZM177 0V92H269V0H177ZM68 435V527H160V435H68ZM68 544V636H160V544H68ZM177 653V745H269V653H177ZM68 326V418H160V326H68ZM68 218V309H160V218H68ZM68 109V201H160V109H68ZM595 653L504 745V653H595ZM595 435L504 527V435H595ZM160
745L68 653H160V745ZM487 636L395 544H487V636ZM68 92L160 0V92H68ZM504 0L595 92H504V0ZM504 544L595 636H504V544Z" />
<glyph unicode="C" glyph-name="C" horiz-adv-x="668" d="M398 653V745H490V653H398ZM289 653V745H381V653H289ZM398 0V92H490V0H398ZM289 0V92H381V0H289ZM180 0V92H272V0H180ZM71 435V527H163V435H71ZM71 544V636H163V544H71ZM180 653V745H272V653H180ZM71 326V418H163V326H71ZM71
218V309H163V218H71ZM71 109V201H163V109H71ZM598 653L507 745V653H598ZM163 745L71 653H163V745ZM598 201L507 109H598V201ZM71 92L163 0V92H71ZM507 0L598 92H507V0ZM507 636L598 544V636H507Z" />
<glyph unicode="D" glyph-name="D" horiz-adv-x="664" d="M286 653V745H378V653H286ZM286 0V92H378V0H286ZM177 0V92H269V0H177ZM68 435V527H160V435H68ZM68 544V636H160V544H68ZM177 653V745H269V653H177ZM68 326V418H160V326H68ZM68 218V309H160V218H68ZM504
435V527H595V435H504ZM504 326V418H595V326H504ZM504 218V309H595V218H504ZM68 109V201H160V109H68ZM487 653L395 745V653H487ZM595 544L504 636V544H595ZM160 745L68 653H160V745ZM487 201L395 109H487V201ZM68 92L160 0V92H68ZM395 0L487 92H395V0ZM504 109L595
201H504V109ZM395 636L487 544V636H395Z" />
<glyph unicode="E" glyph-name="E" horiz-adv-x="668" d="M398 435V527H490V435H398ZM398 653V745H490V653H398ZM289 435V527H381V435H289ZM289 653V745H381V653H289ZM180 435V527H272V435H180ZM398 0V92H490V0H398ZM289 0V92H381V0H289ZM180 0V92H272V0H180ZM71
435V527H163V435H71ZM71 544V636H163V544H71ZM180 653V745H272V653H180ZM71 326V418H163V326H71ZM71 218V309H163V218H71ZM71 109V201H163V109H71ZM598 653L507 745V653H598ZM163 745L71 653H163V745ZM598 201L507 109H598V201ZM71 92L163 0V92H71ZM507 636L598
544V636H507ZM507 0L598 92H507V0Z" />
<glyph unicode="F" glyph-name="F" horiz-adv-x="658" d="M406 653V745H498V653H406ZM406 435V527H498V435H406ZM297 435V527H389V435H297ZM297 653V745H389V653H297ZM188 435V527H280V435H188ZM79 435V527H171V435H79ZM79 544V636H171V544H79ZM188 653V745H280V653H188ZM79
326V418H171V326H79ZM79 218V309H171V218H79ZM79 109V201H171V109H79ZM606 653L515 745V653H606ZM515 435L606 527H515V435ZM171 745L79 653H171V745ZM79 92L171 0V92H79Z" />
<glyph unicode="G" glyph-name="G" horiz-adv-x="665" d="M395 653V745H487V653H395ZM286 653V745H378V653H286ZM395 0V92H487V0H395ZM395 435V527H487V435H395ZM286 0V92H378V0H286ZM177 0V92H269V0H177ZM68 435V527H160V435H68ZM287 435V527H378V435H287ZM68
544V636H160V544H68ZM177 653V745H269V653H177ZM68 326V418H160V326H68ZM68 218V309H160V218H68ZM504 218V309H595V218H504ZM504 326V418H595V326H504ZM68 109V201H160V109H68ZM504 109V201H595V109H504ZM595 653L504 745V653H595ZM595 435L504 527V435H595ZM160
745L68 653H160V745ZM68 92L160 0V92H68ZM504 0L595 92H504V0ZM504 636L595 544V636H504Z" />
<glyph unicode="H" glyph-name="H" horiz-adv-x="665" d="M395 435V527H487V435H395ZM286 435V527H378V435H286ZM68 435V527H160V435H68ZM68 544V636H160V544H68ZM177 435V527H269V435H177ZM68 326V418H160V326H68ZM68 218V309H160V218H68ZM68 109V201H160V109H68ZM504
435V527H595V435H504ZM504 544V636H595V544H504ZM504 326V418H595V326H504ZM504 218V309H595V218H504ZM504 109V201H595V109H504ZM595 653H504V745L595 653ZM160 745V653H68L160 745ZM68 92H160V0L68 92ZM504 0V92H595L504 0Z" />
<glyph unicode="I" glyph-name="I" horiz-adv-x="651" d="M386 653V745H478V653H386ZM277 653V745H369V653H277ZM168 653V745H260V653H168ZM386 0V92H478V0H386ZM277 0V92H369V0H277ZM168 0V92H260V0H168ZM277 435V527H369V435H277ZM277 544V636H369V544H277ZM277
326V418H369V326H277ZM277 218V309H369V218H277ZM277 109V201H369V109H277ZM586 653L495 745V653H586ZM151 745L59 653H151V745ZM59 92L151 0V92H59ZM495 0L586 92H495V0Z" />
<glyph unicode="J" glyph-name="J" horiz-adv-x="666" d="M396 0V92H488V0H396ZM287 0V92H379V0H287ZM178 0V92H270V0H178ZM505 435V527H596V435H505ZM505 544V636H596V544H505ZM505 326V418H596V326H505ZM505 218V309H596V218H505ZM505 109V201H596V109H505ZM69
109V201H161V109H69ZM596 653H505V745L596 653ZM161 218H69V309L161 218ZM69 92H161V0L69 92ZM505 0V92H596L505 0Z" />
<glyph unicode="K" glyph-name="K" horiz-adv-x="665" d="M286 435V527H378V435H286ZM395 435V527H487V435H395ZM504 544V636H595V544H504ZM504 109V201H595V109H504ZM504 218V309H595V218H504ZM68 435V527H160V435H68ZM68 544V636H160V544H68ZM68 326V418H160V326H68ZM177
435V527H269V435H177ZM68 218V309H160V218H68ZM68 109V201H160V109H68ZM595 326H504V418L595 326ZM595 653H504V745L595 653ZM160 745V653H68L160 745ZM68 92H160V0L68 92ZM395 418H487V326L395 418ZM504 0V92H595L504 0ZM504 435V527H595L504 435Z" />
<glyph unicode="L" glyph-name="L" horiz-adv-x="664" d="M67 435V527H159V435H67ZM67 544V636H159V544H67ZM67 326V418H159V326H67ZM285 0V92H377V0H285ZM394 0V92H486V0H394ZM176 0V92H268V0H176ZM67 218V309H159V218H67ZM67 109V201H159V109H67ZM159 745V653H67L159
745ZM594 201V109H503L594 201ZM67 92H159V0L67 92ZM503 0V92H594L503 0Z" />
<glyph unicode="M" glyph-name="M" horiz-adv-x="666" d="M287 544V636H379V544H287ZM287 653V745H379V653H287ZM178 653V745H270V653H178ZM396 653V745H488V653H396ZM69 435V527H161V435H69ZM69 544V636H161V544H69ZM288 435V527H379V435H288ZM288 326V418H379V326H288ZM288
218V309H379V218H288ZM288 109V201H379V109H288ZM69 326V418H161V326H69ZM69 218V309H161V218H69ZM69 109V201H161V109H69ZM505 435V527H596V435H505ZM505 544V636H596V544H505ZM505 326V418H596V326H505ZM505 218V309H596V218H505ZM505 109V201H596V109H505ZM596
653L505 745V653H596ZM161 745L69 653H161V745ZM69 92L161 0V92H69ZM505 0L596 92H505V0Z" />
<glyph unicode="N" glyph-name="N" horiz-adv-x="667" d="M397 653V745H489V653H397ZM288 653V745H380V653H288ZM70 435V527H162V435H70ZM70 544V636H162V544H70ZM179 653V745H271V653H179ZM70 326V418H162V326H70ZM70 218V309H162V218H70ZM70 109V201H162V109H70ZM506
435V527H597V435H506ZM506 544V636H597V544H506ZM506 326V418H597V326H506ZM506 218V309H597V218H506ZM506 109V201H597V109H506ZM597 653L506 745V653H597ZM162 745L70 653H162V745ZM70 92L162 0V92H70ZM506 0L597 92H506V0Z" />
<glyph unicode="O" glyph-name="O" horiz-adv-x="671" d="M401 653V745H493V653H401ZM292 653V745H384V653H292ZM74 435V527H166V435H74ZM74 544V636H166V544H74ZM183 653V745H275V653H183ZM401 0V92H493V0H401ZM292 0V92H384V0H292ZM183 0V92H275V0H183ZM74 326V418H166V326H74ZM74
218V309H166V218H74ZM74 109V201H166V109H74ZM510 435V527H601V435H510ZM510 544V636H601V544H510ZM510 326V418H601V326H510ZM510 218V309H601V218H510ZM510 109V201H601V109H510ZM601 653L510 745V653H601ZM166 745L74 653H166V745ZM74 92L166 0V92H74ZM510 0L601
92H510V0Z" />
<glyph unicode="P" glyph-name="P" horiz-adv-x="668" d="M398 653V745H490V653H398ZM289 653V745H381V653H289ZM71 435V527H163V435H71ZM71 544V636H163V544H71ZM180 653V745H272V653H180ZM398 435V527H490V435H398ZM289 435V527H381V435H289ZM180 435V527H272V435H180ZM71
326V418H163V326H71ZM71 218V309H163V218H71ZM71 109V201H163V109H71ZM507 544V636H598V544H507ZM598 653L507 745V653H598ZM163 745L71 653H163V745ZM71 92L163 0V92H71ZM507 435L598 527H507V435Z" />
<glyph unicode="Q" glyph-name="Q" horiz-adv-x="665" d="M397 653V745H489V653H397ZM288 653V745H380V653H288ZM70 435V527H162V435H70ZM70 544V636H162V544H70ZM179 653V745H271V653H179ZM288 0V92H380V0H288ZM397 0V92H489V0H397ZM179 0V92H271V0H179ZM70 326V418H162V326H70ZM70
218V309H162V218H70ZM70 109V201H162V109H70ZM506 435V527H597V435H506ZM506 544V636H597V544H506ZM506 326V418H597V326H506ZM506 218V309H597V218H506ZM506 109V201H597V109H506ZM597 653L506 745V653H597ZM489 109L397 201V109H489ZM380 218L288 309V218H380ZM162
745L70 653H162V745ZM289 201L380 109V201H289ZM70 92L162 0V92H70ZM597 0L506 92V0H597Z" />
<glyph unicode="R" glyph-name="R" horiz-adv-x="676" d="M297 435V527H389V435H297ZM406 435V527H498V435H406ZM515 109V201H606V109H515ZM515 218V309H606V218H515ZM79 435V527H171V435H79ZM79 544V636H171V544H79ZM515 544V636H606V544H515ZM79 326V418H171V326H79ZM188
435V527H280V435H188ZM297 653V745H389V653H297ZM406 653V745H498V653H406ZM188 653V745H280V653H188ZM79 218V309H171V218H79ZM79 109V201H171V109H79ZM606 326L515 418V326H606ZM606 653L515 745V653H606ZM171 745L79 653H171V745ZM79 92L171 0V92H79ZM406 418L498
326V418H406ZM515 0L606 92H515V0ZM515 435L606 527H515V435Z" />
<glyph unicode="S" glyph-name="S" horiz-adv-x="665" d="M286 435V527H378V435H286ZM395 435V527H487V435H395ZM504 109V201H595V109H504ZM504 218V309H595V218H504ZM68 544V636H160V544H68ZM504 326V418H595V326H504ZM177 435V527H269V435H177ZM286 0V92H378V0H286ZM395
0V92H487V0H395ZM177 0V92H269V0H177ZM286 653V745H378V653H286ZM395 653V745H487V653H395ZM177 653V745H269V653H177ZM68 109V201H160V109H68ZM68 218V309H160V218H68ZM595 653L504 745V653H595ZM160 745L68 653H160V745ZM160 326L68 418V326H160ZM68 92L160 0V92H68ZM504
636L595 544V636H504ZM68 527L160 435V527H68ZM504 0L595 92H504V0ZM595 435L504 527V435H595Z" />
<glyph unicode="T" glyph-name="T" horiz-adv-x="554" d="M341 653V745H433V653H341ZM232 653V745H324V653H232ZM123 653V745H215V653H123ZM232 0V92H324V0H232ZM232 435V527H324V435H232ZM232 544V636H324V544H232ZM232 326V418H324V326H232ZM232 218V309H324V218H232ZM232
109V201H324V109H232ZM541 653L450 745V653H541ZM106 745L14 653H106V745Z" />
<glyph unicode="U" glyph-name="U" horiz-adv-x="680" d="M410 92V0H502V92H410ZM301 92V0H393V92H301ZM83 309V218H175V309H83ZM83 201V109H175V201H83ZM192 92V0H284V92H192ZM83 418V326H175V418H83ZM83 527V435H175V527H83ZM83 636V544H175V636H83ZM519 309V218H610V309H519ZM519
201V109H610V201H519ZM519 418V326H610V418H519ZM519 527V435H610V527H519ZM519 636V544H610V636H519ZM610 92L519 0V92H610ZM175 0L83 92H175V0ZM83 653L175 745V653H83ZM519 745L610 653H519V745Z" />
<glyph unicode="V" glyph-name="V" horiz-adv-x="669" d="M290 92V0H382V92H290ZM72 309V218H164V309H72ZM72 418V326H164V418H72ZM72 527V435H164V527H72ZM72 636V544H164V636H72ZM508 309V218H599V309H508ZM508 418V326H599V418H508ZM508 527V435H599V527H508ZM508
636V544H599V636H508ZM599 201L508 109V201H599ZM491 92L399 0V92H491ZM164 109L72 201H164V109ZM273 0L181 92H273V0ZM72 653L164 745V653H72ZM399 109L491 201V109H399ZM508 745L599 653H508V745ZM181 201L273 109H181V201Z" />
<glyph unicode="W" glyph-name="W" horiz-adv-x="668" d="M289 201V109H381V201H289ZM289 92V0H381V92H289ZM180 92V0H272V92H180ZM398 92V0H490V92H398ZM71 309V218H163V309H71ZM71 201V109H163V201H71ZM290 309V218H381V309H290ZM290 418V326H381V418H290ZM290
527V435H381V527H290ZM290 636V544H381V636H290ZM71 418V326H163V418H71ZM71 527V435H163V527H71ZM71 636V544H163V636H71ZM507 309V218H598V309H507ZM507 201V109H598V201H507ZM507 418V326H598V418H507ZM507 527V435H598V527H507ZM507 636V544H598V636H507ZM598
92L507 0V92H598ZM163 0L71 92H163V0ZM71 653L163 745V653H71ZM507 745L598 653H507V745Z" />
<glyph unicode="X" glyph-name="X" horiz-adv-x="669" d="M290 435V527H382V435H290ZM399 435V527H491V435H399ZM508 544V636H599V544H508ZM508 109V201H599V109H508ZM508 218V309H599V218H508ZM72 544V636H164V544H72ZM181 435V527H273V435H181ZM72 218V309H164V218H72ZM72
109V201H164V109H72ZM599 326H508V418L599 326ZM599 653H508V745L599 653ZM164 745V653H72L164 745ZM164 418V326H72L164 418ZM72 92H164V0L72 92ZM72 527H164V435L72 527ZM399 418H491V326L399 418ZM508 0V92H599L508 0ZM508 435V527H599L508 435ZM181 326V418H273L181
326Z" />
<glyph unicode="Y" glyph-name="Y" horiz-adv-x="665" d="M160 636V544H68V636H160ZM395 218V309H487L395 218ZM504 326V418H595L504 326ZM160 745V653H68L160 745ZM487 418V326H395L487 418ZM595 653H504V745L595 653ZM269 326H177V418L269 326ZM595 527V435H504V527H595ZM160
527V435H68V527H160ZM595 636V544H504V636H595ZM68 418H160V326L68 418ZM177 309H269V218L177 309ZM378 0H286V92H378V0ZM378 109H286V201H378V109ZM378 218H286V309H378V218Z" />
<glyph unicode="Z" glyph-name="Z" horiz-adv-x="656" d="M261 0H169V92H261V0ZM370 0H278V92H370V0ZM479 0H387V92H479V0ZM60 109L152 201V109H60ZM169 218L261 309V218H169ZM587 92L496 0V92H587ZM587 636L496 544V636H587ZM261 201L169 109V201H261ZM370 309L278
218V309H370ZM479 527L387 435V527H479ZM261 653H169V745H261V653ZM370 653H278V745H370V653ZM479 653H387V745H479V653ZM587 653H496V745H587V653ZM370 326H278V418H370V326ZM152 0H60V92H152V0ZM60 653L152 745V653H60ZM387 544L479 636V544H387ZM278 435L370
527V435H278ZM152 636L60 544V636H152ZM496 109L587 201V109H496Z" />
<glyph unicode="[" glyph-name="bracketleft" horiz-adv-x="332" d="M78 653V745H169V653H78ZM78 435V527H169V435H78ZM78 544V636H169V544H78ZM78 218V309H169V218H78ZM78 0V92H169V0H78ZM78 326V418H169V326H78ZM78 109V201H169V109H78ZM186 0L278 92H186V0ZM278
653L186 745V653H278Z" />
<glyph unicode="\" glyph-name="backslash" horiz-adv-x="675" d="M405 109V201H497V109H405ZM187 544V636H279V544H187ZM497 218H405V309L497 218ZM296 309H388V218L296 309ZM605 0H514V92L605 0ZM405 92H497V0L405 92ZM187 527H279V435L187 527ZM296 326V418H388V326H296ZM388
435H296V527L388 435ZM78 745H170V653L78 745ZM279 653H187V745L279 653Z" />
<glyph unicode="]" glyph-name="bracketright" horiz-adv-x="331" d="M156 653V745H248V653H156ZM156 435V527H248V435H156ZM156 544V636H248V544H156ZM156 218V309H248V218H156ZM156 0V92H248V0H156ZM156 326V418H248V326H156ZM156 109V201H248V109H156ZM48 92L139
0V92H48ZM139 745L48 653H139V745Z" />
<glyph unicode="^" glyph-name="asciicircum" horiz-adv-x="322" d="M60 653L152 745V653H60ZM151 636L60 544V636H151ZM260 653L168 745V653H260ZM169 636L260 544V636H169Z" />
<glyph unicode="_" glyph-name="underscore" horiz-adv-x="586" d="M248 0H340V-92H248V0ZM30 0H122V-92H30V0ZM357 0H449V-92H357V0ZM466 0H557V-92H466V0ZM139 0H231V-92H139V0Z" />
<glyph unicode="`" glyph-name="grave" horiz-adv-x="206" d="M149 653H57V745L149 653ZM57 636H149V544L57 636Z" />
<glyph unicode="a" glyph-name="a" horiz-adv-x="656" d="M156 326H64V418H156V326ZM156 218H64V309H156V218ZM156 109H64V201H156V109ZM265 435H173V527H265V435ZM265 0H173V92H265V0ZM374 435H282V527H374V435ZM374 0H282V92H374V0ZM483 435H391V527H483V435ZM591
0H500V92H591V0ZM591 326H500V418H591V326ZM591 218H500V309H591V218ZM591 109H500V201H591V109ZM64 435L156 527V435H64ZM500 527L591 435H500V527ZM483 92L391 0V92H483ZM156 0L64 92H156V0Z" />
<glyph unicode="b" glyph-name="b" horiz-adv-x="662" d="M157 435V527H65V435H157ZM157 326V418H65V326H157ZM157 218V309H65V218H157ZM157 109V201H65V109H157ZM266 435V527H174V435H266ZM375 435V527H283V435H375ZM375 0V92H283V0H375ZM266 0V92H174V0H266ZM484
435V527H392V435H484ZM484 0V92H392V0H484ZM592 326V418H501V326H592ZM157 544V636H65V544H157ZM592 218V309H501V218H592ZM592 109V201H501V109H592ZM65 653L157 745V653H65ZM501 527L592 435H501V527ZM592 92L501 0V92H592ZM157 0L65 92H157V0Z" />
<glyph unicode="c" glyph-name="c" horiz-adv-x="653" d="M159 326H67V418H159V326ZM159 218H67V309H159V218ZM159 109H67V201H159V109ZM268 435H176V527H268V435ZM268 0H176V92H268V0ZM377 435H285V527H377V435ZM377 0H285V92H377V0ZM486 435H394V527H486V435ZM486
0H394V92H486V0ZM67 435L159 527V435H67ZM594 92L503 0V92H594ZM594 326L503 418H594V326ZM503 527L594 435H503V527ZM503 109L594 201V109H503ZM159 0L67 92H159V0Z" />
<glyph unicode="d" glyph-name="d" horiz-adv-x="666" d="M505 435V527H596V435H505ZM505 326V418H596V326H505ZM505 218V309H596V218H505ZM505 109V201H596V109H505ZM396 435V527H488V435H396ZM287 435V527H379V435H287ZM287 0V92H379V0H287ZM396 0V92H488V0H396ZM178
435V527H270V435H178ZM178 0V92H270V0H178ZM69 326V418H161V326H69ZM505 544V636H596V544H505ZM69 218V309H161V218H69ZM69 109V201H161V109H69ZM596 745V653H505L596 745ZM161 527V435H69L161 527ZM69 92H161V0L69 92ZM505 0V92H596L505 0Z" />
<glyph unicode="e" glyph-name="e" horiz-adv-x="666" d="M161 326H69V418H161V326ZM596 326H505V418H596V326ZM161 218H69V309H161V218ZM161 109H69V201H161V109ZM270 435H178V527H270V435ZM270 0H178V92H270V0ZM379 435H287V527H379V435ZM379 0H287V92H379V0ZM488
435H396V527H488V435ZM379 218H287V309H379V218ZM270 218H178V309H270V218ZM488 218H396V309H488V218ZM488 0H396V92H488V0ZM69 435L161 527V435H69ZM596 92L505 0V92H596ZM596 309L505 218V309H596ZM505 527L596 435H505V527ZM505 109L596 201V109H505ZM161 0L69
92H161V0Z" />
<glyph unicode="f" glyph-name="f" horiz-adv-x="489" d="M231 326V418H140V326H231ZM231 218V309H140V218H231ZM231 109V201H140V109H231ZM231 435V527H140V435H231ZM340 435V527H248V435H340ZM231 544V636H140V544H231ZM140 653L231 745V653H140ZM340 653V745H248V653H340ZM357
745L449 653H357V745ZM231 0L140 92H231V0ZM31 435L123 527V435H31ZM449 544L357 636H449V544Z" />
<glyph unicode="g" glyph-name="g" horiz-adv-x="666" d="M161 326V418H69V326H161ZM161 218V309H69V218H161ZM161 109V201H69V109H161ZM270 -218V-126H178V-218H270ZM379 -218V-126H287V-218H379ZM488 -218V-126H396V-218H488ZM596 326V418H505V326H596ZM596
-109V-17H505V-109H596ZM69 435L161 527V435H69ZM505 527L596 435H505V527ZM596 -126L505 -218V-126H596ZM161 0L69 92H161V0ZM161 -218L69 -126H161V-218ZM69 -17L161 -109H69V-17ZM270 435V527H178V435H270ZM379 435V527H287V435H379ZM488 435V527H396V435H488ZM596
218V309H505V218H596ZM596 109V201H505V109H596ZM596 0V92H505V0H596ZM270 0V92H178V0H270ZM379 0V92H288V0H379ZM488 0V92H396V0H488Z" />
<glyph unicode="h" glyph-name="h" horiz-adv-x="648" d="M155 326V418H63V326H155ZM155 218V309H63V218H155ZM155 109V201H63V109H155ZM590 326V418H499V326H590ZM499 527L590 435H499V527ZM155 0L63 92H155V0ZM590 92L499 0V92H590ZM264 435V527H172V435H264ZM155
435V527H63V435H155ZM373 435V527H281V435H373ZM482 435V527H390V435H482ZM590 218V309H499V218H590ZM590 109V201H499V109H590ZM155 544V636H63V544H155ZM63 653L155 745V653H63Z" />
<glyph unicode="i" glyph-name="i" horiz-adv-x="461" d="M278 653H186V745H278V653ZM278 326H187V418H278V326ZM278 218H187V309H278V218ZM278 109H187V201H278V109ZM387 92L295 0V92H387ZM295 109L387 201V109H295ZM77 435L169 527V435H77ZM278 435H186V527H278V435ZM187
0V92H278V0H187ZM77 0V92H169V0H77Z" />
<glyph unicode="j" glyph-name="j" horiz-adv-x="426" d="M266 435V527H358V435H266ZM266 326V418H358V326H266ZM249 -218H158V-126H249V-218ZM266 218V309H358V218H266ZM266 109V201H358V109H266ZM266 0V92H358V0H266ZM266 -109V-17H358V-109H266ZM358 653H266V745L358
653ZM266 -218V-126H358L266 -218ZM140 -109H48V-17L140 -109ZM48 -126H140V-218L48 -126Z" />
<glyph unicode="k" glyph-name="k" horiz-adv-x="669" d="M166 326V418H74V326H166ZM166 218V309H74V218H166ZM166 109V201H74V109H166ZM166 0L74 92H166V0ZM601 92L510 0V92H601ZM601 418L510 326V418H601ZM166 435V527H74V435H166ZM384 218V309H292V218H384ZM493
218V309H401V218H493ZM275 218V309H183V218H275ZM601 109V201H510V109H601ZM166 544V636H74V544H166ZM74 653L166 745V653H74ZM510 309L601 218H510V309ZM510 527L601 435H510V527ZM401 326L493 418V326H401Z" />
<glyph unicode="l" glyph-name="l" horiz-adv-x="239" d="M73 435V527H165V435H73ZM73 544V636H165V544H73ZM73 326V418H165V326H73ZM73 218V309H165V218H73ZM73 109V201H165V109H73ZM73 0V92H165V0H73ZM165 745V653H73L165 745Z" />
<glyph unicode="m" glyph-name="m" horiz-adv-x="666" d="M161 326V418H69V326H161ZM379 326V418H288V326H379ZM379 218V309H288V218H379ZM379 109V201H288V109H379ZM161 218V309H69V218H161ZM161 109V201H69V109H161ZM596 326V418H505V326H596ZM505 527L596 435H505V527ZM161
0L69 92H161V0ZM596 92L505 0V92H596ZM270 435V527H178V435H270ZM379 435V527H287V435H379ZM488 435V527H396V435H488ZM596 218V309H505V218H596ZM596 109V201H505V109H596ZM69 435L161 527V435H69Z" />
<glyph unicode="n" glyph-name="n" horiz-adv-x="669" d="M164 326V418H72V326H164ZM164 218V309H72V218H164ZM164 109V201H72V109H164ZM599 326V418H508V326H599ZM508 527L599 435H508V527ZM164 0L72 92H164V0ZM599 92L508 0V92H599ZM273 435V527H181V435H273ZM382
435V527H290V435H382ZM491 435V527H399V435H491ZM599 218V309H508V218H599ZM599 109V201H508V109H599ZM72 435L164 527V435H72Z" />
<glyph unicode="o" glyph-name="o" horiz-adv-x="669" d="M164 326H72V418H164V326ZM164 218H72V309H164V218ZM164 109H72V201H164V109ZM599 326H508V418H599V326ZM599 218H508V309H599V218ZM599 109H508V201H599V109ZM273 435H181V527H273V435ZM273 0H181V92H273V0ZM382
435H290V527H382V435ZM382 0H290V92H382V0ZM491 435H399V527H491V435ZM491 0H399V92H491V0ZM72 435L164 527V435H72ZM599 92L508 0V92H599ZM508 527L599 435H508V527ZM164 0L72 92H164V0Z" />
<glyph unicode="p" glyph-name="p" horiz-adv-x="671" d="M166 201V109H74V201H166ZM166 309V218H74V309H166ZM166 418V326H74V418H166ZM601 201V109H510V201H601ZM510 0V92H601L510 0ZM166 527V435H74L166 527ZM601 435H510V527L601 435ZM275 92V0H183V92H275ZM166
92V0H74V92H166ZM384 92V0H292V92H384ZM493 92V0H401V92H493ZM275 527V435H183V527H275ZM384 527V435H292V527H384ZM493 527V435H401V527H493ZM601 309V218H510V309H601ZM601 418V326H510V418H601ZM166 -17V-109H74V-17H166ZM74 -126H166V-218L74 -126Z" />
<glyph unicode="q" glyph-name="q" horiz-adv-x="671" d="M510 201V109H601V201H510ZM510 309V218H601V309H510ZM510 418V326H601V418H510ZM74 201V109H166V201H74ZM166 0L74 92H166V0ZM510 527L601 435H510V527ZM74 435L166 527V435H74ZM401 92V0H493V92H401ZM510
92V0H601V92H510ZM292 92V0H384V92H292ZM183 92V0H275V92H183ZM401 527V435H493V527H401ZM292 527V435H384V527H292ZM183 527V435H275V527H183ZM74 309V218H166V309H74ZM74 418V326H166V418H74ZM510 -17V-109H601V-17H510ZM601 -126L510 -218V-126H601Z" />
<glyph unicode="r" glyph-name="r" horiz-adv-x="655" d="M161 326V418H69V326H161ZM161 218V309H69V218H161ZM161 109V201H69V109H161ZM505 527L596 435H505V527ZM161 0L69 92H161V0ZM596 326L505 418H596V326ZM270 435V527H178V435H270ZM379 435V527H287V435H379ZM488
435V527H396V435H488ZM69 435L161 527V435H69Z" />
<glyph unicode="s" glyph-name="s" horiz-adv-x="651" d="M154 326H62V418H154V326ZM589 109H498V201H589V109ZM263 435H171V527H263V435ZM263 0H171V92H263V0ZM372 435H280V527H372V435ZM372 0H280V92H372V0ZM481 435H389V527H481V435ZM372 218H280V309H372V218ZM263
218H171V309H263V218ZM481 218H389V309H481V218ZM481 0H389V92H481V0ZM62 435L154 527V435H62ZM589 92L498 0V92H589ZM498 309L589 218H498V309ZM62 201L154 109H62V201ZM498 527L589 435H498V527ZM154 0L62 92H154V0ZM154 218L62 309H154V218ZM589 326L498 418H589V326Z"
/>
<glyph unicode="t" glyph-name="t" horiz-adv-x="494" d="M240 418V326H149V418H240ZM240 527V435H149V527H240ZM240 636V544H149V636H240ZM240 309V218H149V309H240ZM349 527V435H257V527H349ZM240 201V109H149V201H240ZM149 92H240V0L149 92ZM349 92V0H257V92H349ZM366
0V92H458L366 0ZM240 745V653H149L240 745ZM132 527V435H40L132 527ZM458 201V109H366L458 201Z" />
<glyph unicode="u" glyph-name="u" horiz-adv-x="672" d="M167 201V109H75V201H167ZM167 309V218H75V309H167ZM167 418V326H75V418H167ZM602 201V109H511V201H602ZM511 0V92H602L511 0ZM167 527V435H75L167 527ZM602 435H511V527L602 435ZM276 92V0H184V92H276ZM385
92V0H293V92H385ZM494 92V0H402V92H494ZM602 309V218H511V309H602ZM602 418V326H511V418H602ZM75 92H167V0L75 92Z" />
<glyph unicode="v" glyph-name="v" horiz-adv-x="667" d="M162 418V326H70V418H162ZM397 0V92H489L397 0ZM506 109V201H597L506 109ZM162 527V435H70L162 527ZM489 201V109H397L489 201ZM597 435H506V527L597 435ZM271 109H179V201L271 109ZM380 92V0H288V92H380ZM597
309V218H506V309H597ZM162 309V218H70V309H162ZM597 418V326H506V418H597ZM70 201H162V109L70 201ZM179 92H271V0L179 92Z" />
<glyph unicode="w" glyph-name="w" horiz-adv-x="661" d="M157 201V109H65V201H157ZM375 201V109H284V201H375ZM375 309V218H284V309H375ZM375 418V326H284V418H375ZM157 309V218H65V309H157ZM157 418V326H65V418H157ZM592 201V109H501V201H592ZM501 0V92H592L501
0ZM157 527V435H65L157 527ZM592 435H501V527L592 435ZM266 92V0H174V92H266ZM375 92V0H283V92H375ZM484 92V0H392V92H484ZM592 309V218H501V309H592ZM592 418V326H501V418H592ZM65 92H157V0L65 92Z" />
<glyph unicode="x" glyph-name="x" horiz-adv-x="655" d="M378 309V218H287V309H378ZM487 309V218H395V309H487ZM160 201V109H68V201H160ZM269 309V218H177V309H269ZM595 201V109H504V201H595ZM504 0V92H595L504 0ZM160 527V435H68L160 527ZM160 309V218H68L160
309ZM487 418V326H395L487 418ZM68 418H160V326L68 418ZM595 435H504V527L595 435ZM595 218H504V309L595 218ZM269 326H177V418L269 326ZM504 326V418H595L504 326ZM68 92H160V0L68 92Z" />
<glyph unicode="y" glyph-name="y" horiz-adv-x="669" d="M164 418V326H72V418H164ZM508 -218V-126H599L508 -218ZM164 527V435H72L164 527ZM599 435H508V527L599 435ZM164 -109H72V-17L164 -109ZM382 92V0H290V92H382ZM273 92V0H181V92H273ZM599 309V218H508V309H599ZM599
201V109H508V201H599ZM599 92V0H508V92H599ZM164 201V109H72V201H164ZM491 92V0H399V92H491ZM164 309V218H72V309H164ZM599 418V326H508V418H599ZM72 92H164V0L72 92ZM72 -126H164V-218L72 -126ZM491 -218H399V-126H491V-218ZM382 -218H290V-126H382V-218ZM273
-218H181V-126H273V-218ZM508 -109V-17H599V-109H508Z" />
<glyph unicode="z" glyph-name="z" horiz-adv-x="656" d="M266 435H174V527H266V435ZM266 0H174V92H266V0ZM157 0H65V92H157V0ZM375 435H283V527H375V435ZM375 218H283V309H375V218ZM375 0H283V92H375V0ZM484 435H392V527H484V435ZM484 0H392V92H484V0ZM65 435L157
527V435H65ZM65 109L157 201V109H65ZM392 326L484 418V326H392ZM174 218L266 309V218H174ZM592 92L501 0V92H592ZM157 418L65 326V418H157ZM484 309L392 218V309H484ZM266 201L174 109V201H266ZM592 418L501 326V418H592ZM501 527L592 435H501V527ZM501 109L592
201V109H501Z" />
<glyph unicode="{" glyph-name="braceleft" horiz-adv-x="418" d="M267 653V745H359V653H267ZM158 544V636H250V544H158ZM158 435V527H250V435H158ZM267 0V92H359V0H267ZM49 326V418H141V326H49ZM159 218V309H250V218H159ZM158 326V418H250V326H158ZM158 109V201H250V109H158ZM250
745L158 653H250V745ZM158 92L250 0V92H158Z" />
<glyph unicode="|" glyph-name="bar" horiz-adv-x="241" d="M73 309H165V218H73V309ZM73 201H165V109H73V201ZM73 92H165V0H73V92ZM73 -17H165V-109H73V-17ZM73 418H165V326H73V418ZM73 527H165V435H73V527ZM73 636H165V544H73V636ZM73 745H165V653H73V745Z" />
<glyph unicode="}" glyph-name="braceright" horiz-adv-x="425" d="M64 653V745H156V653H64ZM173 544V636H265V544H173ZM173 435V527H265V435H173ZM64 0V92H156V0H64ZM282 326V418H374V326H282ZM174 218V309H265V218H174ZM173 326V418H265V326H173ZM173 109V201H265V109H173ZM265
653L173 745V653H265ZM173 0L265 92H173V0Z" />
<glyph unicode="~" glyph-name="asciitilde" horiz-adv-x="664" d="M67 636L159 544H67V636ZM286 544L377 636V544H286ZM503 636L594 544H503V636ZM377 527L285 435V527H377ZM594 435L503 527H594V435ZM159 435L67 527H159V435ZM176 527V435H268V527H176ZM394
636V544H486V636H394Z" />
</font>
</defs>
</svg>
